<svg xmlns="http://www.w3.org/2000/svg" xmlns:xlink="http://www.w3.org/1999/xlink" width="409" zoomAndPan="magnify" viewBox="0 0 306.75 66.75" height="89" preserveAspectRatio="xMidYMid meet" version="1.0"><defs><g/></defs><g fill="#ffffff" fill-opacity="1"><g transform="translate(98.319576, 62.038445)"><g><path d="M 3.605469 -4.625 L 3.605469 -5.117188 L 0.5625 -5.117188 L 0.5625 0 L 1.089844 0 L 1.089844 -2.308594 L 3.527344 -2.308594 L 3.527344 -2.804688 L 1.089844 -2.804688 L 1.089844 -4.625 Z M 3.605469 -4.625 "/></g></g></g><g fill="#ffffff" fill-opacity="1"><g transform="translate(103.728856, 62.038445)"><g><path d="M 4.265625 -1.691406 L 4.265625 -5.117188 L 3.738281 -5.117188 L 3.738281 -1.617188 C 3.738281 -1.40625 3.703125 -1.234375 3.625 -1.089844 C 3.40625 -0.667969 2.988281 -0.457031 2.363281 -0.457031 C 1.957031 -0.457031 1.632812 -0.550781 1.390625 -0.730469 C 1.113281 -0.933594 0.976562 -1.226562 0.976562 -1.617188 L 0.976562 -5.117188 L 0.453125 -5.117188 L 0.453125 -1.691406 C 0.453125 -1.136719 0.632812 -0.699219 0.992188 -0.382812 C 1.332031 -0.0820312 1.789062 0.0664062 2.363281 0.0664062 C 2.925781 0.0664062 3.378906 -0.0820312 3.722656 -0.382812 C 4.085938 -0.699219 4.265625 -1.136719 4.265625 -1.691406 Z M 4.265625 -1.691406 "/></g></g></g><g fill="#ffffff" fill-opacity="1"><g transform="translate(110.101123, 62.038445)"><g><path d="M 1.089844 -0.527344 L 1.089844 -5.117188 L 0.5625 -5.117188 L 0.5625 0 L 2.917969 0 L 2.917969 -0.527344 Z M 1.089844 -0.527344 "/></g></g></g><g fill="#ffffff" fill-opacity="1"><g transform="translate(114.825779, 62.038445)"><g><path d="M 1.089844 -0.527344 L 1.089844 -5.117188 L 0.5625 -5.117188 L 0.5625 0 L 2.917969 0 L 2.917969 -0.527344 Z M 1.089844 -0.527344 "/></g></g></g><g fill="#ffffff" fill-opacity="1"><g transform="translate(119.550434, 62.038445)"><g/></g></g><g fill="#ffffff" fill-opacity="1"><g transform="translate(123.23687, 62.038445)"><g><path d="M 1.980469 -2.40625 C 2.640625 -2.25 3.09375 -2.078125 3.332031 -1.878906 C 3.5 -1.746094 3.582031 -1.574219 3.582031 -1.363281 C 3.582031 -1.152344 3.535156 -0.976562 3.445312 -0.859375 C 3.21875 -0.542969 2.8125 -0.382812 2.242188 -0.382812 C 1.445312 -0.382812 0.992188 -0.65625 0.894531 -1.195312 L 0.277344 -1.195312 C 0.457031 -0.332031 1.113281 0.0976562 2.242188 0.0976562 C 2.746094 0.0976562 3.167969 -0.0078125 3.507812 -0.234375 C 3.914062 -0.496094 4.121094 -0.886719 4.121094 -1.398438 C 4.121094 -1.820312 3.957031 -2.144531 3.625 -2.371094 C 3.394531 -2.535156 3.015625 -2.6875 2.496094 -2.820312 C 1.972656 -2.957031 1.632812 -3.070312 1.472656 -3.152344 C 1.128906 -3.324219 0.957031 -3.566406 0.964844 -3.882812 C 0.964844 -4.046875 0.992188 -4.191406 1.066406 -4.296875 C 1.265625 -4.589844 1.609375 -4.738281 2.105469 -4.738281 C 2.804688 -4.738281 3.203125 -4.515625 3.308594 -4.078125 L 3.882812 -4.078125 C 3.695312 -4.816406 3.101562 -5.191406 2.105469 -5.191406 C 1.65625 -5.191406 1.257812 -5.070312 0.925781 -4.828125 C 0.585938 -4.589844 0.414062 -4.234375 0.414062 -3.753906 C 0.414062 -3.101562 0.941406 -2.648438 1.980469 -2.40625 Z M 1.980469 -2.40625 "/></g></g></g><g fill="#ffffff" fill-opacity="1"><g transform="translate(129.210397, 62.038445)"><g><path d="M 0.152344 -4.640625 L 1.390625 -4.640625 L 1.390625 -0.015625 L 1.917969 -0.015625 L 1.917969 -4.640625 L 3.160156 -4.640625 L 3.160156 -5.132812 L 0.152344 -5.132812 Z M 0.152344 -4.640625 "/></g></g></g><g fill="#ffffff" fill-opacity="1"><g transform="translate(134.175796, 62.038445)"><g><path d="M 1.390625 -1.878906 L 2.324219 -4.234375 L 3.25 -1.878906 Z M 4.566406 0 L 2.324219 -5.46875 L 0.0742188 0 L 0.648438 0 L 1.195312 -1.390625 L 3.445312 -1.390625 L 3.996094 0 Z M 4.566406 0 "/></g></g></g><g fill="#ffffff" fill-opacity="1"><g transform="translate(140.472828, 62.038445)"><g><path d="M 5.257812 -1.566406 L 4.679688 -1.566406 C 4.5 -1.234375 4.25 -0.964844 3.933594 -0.765625 C 3.617188 -0.5625 3.265625 -0.464844 2.890625 -0.464844 C 2.324219 -0.464844 1.84375 -0.667969 1.445312 -1.089844 C 1.054688 -1.488281 0.863281 -1.980469 0.863281 -2.550781 C 0.863281 -3.121094 1.054688 -3.609375 1.445312 -4.015625 C 1.625 -4.207031 1.84375 -4.355469 2.089844 -4.46875 C 2.332031 -4.582031 2.574219 -4.640625 2.8125 -4.640625 C 3.046875 -4.640625 3.25 -4.613281 3.429688 -4.558594 C 3.980469 -4.394531 4.394531 -4.0625 4.671875 -3.558594 L 5.25 -3.558594 C 5.054688 -4.039062 4.746094 -4.429688 4.320312 -4.730469 C 3.882812 -5.03125 3.40625 -5.183594 2.890625 -5.183594 C 2.175781 -5.183594 1.574219 -4.921875 1.074219 -4.402344 C 0.84375 -4.160156 0.660156 -3.875 0.535156 -3.558594 C 0.398438 -3.242188 0.339844 -2.902344 0.339844 -2.550781 C 0.339844 -1.828125 0.578125 -1.21875 1.074219 -0.707031 C 1.574219 -0.179688 2.175781 0.0742188 2.890625 0.0742188 C 3.40625 0.0742188 3.882812 -0.0742188 4.324219 -0.375 C 4.753906 -0.675781 5.0625 -1.066406 5.257812 -1.566406 Z M 5.257812 -1.566406 "/></g></g></g><g fill="#ffffff" fill-opacity="1"><g transform="translate(147.612472, 62.038445)"><g><path d="M 1.089844 0 L 1.089844 -2.398438 L 2.8125 0 L 3.492188 0 L 1.609375 -2.558594 L 3.492188 -5.117188 L 2.8125 -5.117188 L 1.089844 -2.707031 L 1.089844 -5.117188 L 0.5625 -5.117188 L 0.5625 0 Z M 1.089844 0 "/></g></g></g><g fill="#ffffff" fill-opacity="1"><g transform="translate(152.833669, 62.038445)"><g/></g></g><g fill="#ffffff" fill-opacity="1"><g transform="translate(156.520105, 62.038445)"><g><path d="M 4.535156 -2.558594 C 4.535156 -2.925781 4.460938 -3.265625 4.324219 -3.582031 C 4.191406 -3.898438 4.003906 -4.167969 3.769531 -4.394531 C 3.527344 -4.621094 3.25 -4.792969 2.933594 -4.921875 C 2.609375 -5.046875 2.265625 -5.117188 1.902344 -5.117188 L 0.5625 -5.117188 L 0.5625 0 L 1.902344 0 C 2.265625 0 2.609375 -0.0585938 2.933594 -0.1875 C 3.25 -0.316406 3.527344 -0.496094 3.769531 -0.722656 C 4.003906 -0.949219 4.191406 -1.210938 4.324219 -1.527344 C 4.460938 -1.84375 4.535156 -2.183594 4.535156 -2.558594 Z M 4.023438 -2.558594 C 4.023438 -1.972656 3.8125 -1.480469 3.40625 -1.097656 C 3 -0.714844 2.503906 -0.527344 1.917969 -0.527344 L 1.089844 -0.527344 L 1.089844 -4.589844 L 1.917969 -4.589844 C 2.503906 -4.589844 3 -4.394531 3.40625 -4.015625 C 3.8125 -3.625 4.023438 -3.136719 4.023438 -2.558594 Z M 4.023438 -2.558594 "/></g></g></g><g fill="#ffffff" fill-opacity="1"><g transform="translate(163.050363, 62.038445)"><g><path d="M 3.605469 0 L 3.605469 -0.488281 L 1.089844 -0.488281 L 1.089844 -2.308594 L 3.527344 -2.308594 L 3.527344 -2.804688 L 1.089844 -2.804688 L 1.089844 -4.625 L 3.605469 -4.625 L 3.605469 -5.117188 L 0.5625 -5.117188 L 0.5625 0 Z M 3.605469 0 "/></g></g></g><g fill="#ffffff" fill-opacity="1"><g transform="translate(168.873425, 62.038445)"><g><path d="M 2.398438 0.308594 L 4.71875 -5.117188 L 4.144531 -5.117188 L 2.398438 -0.992188 L 0.648438 -5.117188 L 0.0742188 -5.117188 Z M 2.398438 0.308594 "/></g></g></g><g fill="#ffffff" fill-opacity="1"><g transform="translate(175.320924, 62.038445)"><g><path d="M 3.605469 0 L 3.605469 -0.488281 L 1.089844 -0.488281 L 1.089844 -2.308594 L 3.527344 -2.308594 L 3.527344 -2.804688 L 1.089844 -2.804688 L 1.089844 -4.625 L 3.605469 -4.625 L 3.605469 -5.117188 L 0.5625 -5.117188 L 0.5625 0 Z M 3.605469 0 "/></g></g></g><g fill="#ffffff" fill-opacity="1"><g transform="translate(181.143986, 62.038445)"><g><path d="M 1.089844 -0.527344 L 1.089844 -5.117188 L 0.5625 -5.117188 L 0.5625 0 L 2.917969 0 L 2.917969 -0.527344 Z M 1.089844 -0.527344 "/></g></g></g><g fill="#ffffff" fill-opacity="1"><g transform="translate(185.868646, 62.038445)"><g><path d="M 5.070312 -2.574219 C 5.070312 -1.984375 4.859375 -1.488281 4.453125 -1.082031 C 4.039062 -0.667969 3.542969 -0.464844 2.964844 -0.464844 C 2.386719 -0.464844 1.886719 -0.667969 1.480469 -1.082031 C 1.066406 -1.488281 0.863281 -1.984375 0.863281 -2.574219 C 0.863281 -3.144531 1.066406 -3.640625 1.480469 -4.054688 C 1.886719 -4.460938 2.386719 -4.671875 2.964844 -4.671875 C 3.542969 -4.671875 4.039062 -4.460938 4.453125 -4.054688 C 4.859375 -3.640625 5.070312 -3.144531 5.070312 -2.574219 Z M 5.597656 -2.574219 C 5.597656 -2.933594 5.523438 -3.273438 5.386719 -3.597656 C 5.25 -3.914062 5.0625 -4.191406 4.824219 -4.429688 C 4.582031 -4.664062 4.304688 -4.851562 3.988281 -4.988281 C 3.664062 -5.125 3.324219 -5.199219 2.964844 -5.199219 C 2.601562 -5.199219 2.257812 -5.125 1.941406 -4.988281 C 1.625 -4.851562 1.347656 -4.664062 1.105469 -4.429688 C 0.863281 -4.191406 0.675781 -3.914062 0.542969 -3.597656 C 0.40625 -3.273438 0.339844 -2.933594 0.339844 -2.574219 C 0.339844 -2.210938 0.40625 -1.867188 0.542969 -1.550781 C 0.675781 -1.226562 0.863281 -0.949219 1.105469 -0.707031 C 1.347656 -0.464844 1.625 -0.277344 1.941406 -0.144531 C 2.257812 -0.0078125 2.601562 0.0585938 2.964844 0.0585938 C 3.324219 0.0585938 3.664062 -0.0078125 3.988281 -0.144531 C 4.304688 -0.277344 4.582031 -0.464844 4.824219 -0.707031 C 5.0625 -0.949219 5.25 -1.226562 5.386719 -1.550781 C 5.523438 -1.867188 5.597656 -2.210938 5.597656 -2.574219 Z M 5.597656 -2.574219 "/></g></g></g><g fill="#ffffff" fill-opacity="1"><g transform="translate(193.459693, 62.038445)"><g><path d="M 1.089844 -2.535156 L 1.089844 -4.613281 L 2.28125 -4.613281 C 2.589844 -4.613281 2.835938 -4.515625 3.023438 -4.324219 C 3.203125 -4.128906 3.304688 -3.890625 3.304688 -3.589844 C 3.304688 -3.28125 3.203125 -3.03125 3.007812 -2.828125 C 2.8125 -2.632812 2.574219 -2.535156 2.28125 -2.535156 Z M 3.828125 -3.574219 C 3.828125 -4.023438 3.664062 -4.394531 3.347656 -4.6875 C 3.03125 -4.972656 2.65625 -5.117188 2.203125 -5.117188 L 0.5625 -5.117188 L 0.5625 0 L 1.089844 0 L 1.089844 -2.023438 L 2.203125 -2.023438 C 2.65625 -2.023438 3.039062 -2.167969 3.347656 -2.453125 C 3.664062 -2.753906 3.828125 -3.121094 3.828125 -3.574219 Z M 3.828125 -3.574219 "/></g></g></g><g fill="#ffffff" fill-opacity="1"><g transform="translate(199.094678, 62.038445)"><g><path d="M 3.605469 0 L 3.605469 -0.488281 L 1.089844 -0.488281 L 1.089844 -2.308594 L 3.527344 -2.308594 L 3.527344 -2.804688 L 1.089844 -2.804688 L 1.089844 -4.625 L 3.605469 -4.625 L 3.605469 -5.117188 L 0.5625 -5.117188 L 0.5625 0 Z M 3.605469 0 "/></g></g></g><g fill="#ffffff" fill-opacity="1"><g transform="translate(204.917741, 62.038445)"><g><path d="M 1.089844 -2.527344 L 1.089844 -4.613281 L 2.28125 -4.613281 C 2.589844 -4.613281 2.835938 -4.515625 3.023438 -4.320312 C 3.203125 -4.121094 3.304688 -3.882812 3.304688 -3.582031 C 3.304688 -3.28125 3.203125 -3.03125 3.007812 -2.828125 C 2.8125 -2.625 2.574219 -2.527344 2.28125 -2.527344 Z M 3.828125 -3.574219 C 3.828125 -4.011719 3.664062 -4.386719 3.347656 -4.679688 C 3.039062 -4.964844 2.65625 -5.117188 2.203125 -5.117188 L 0.5625 -5.117188 L 0.5625 0 L 1.089844 0 L 1.089844 -2.023438 L 1.699219 -2.023438 L 3.203125 0 L 3.914062 0 L 2.332031 -2.023438 C 2.730469 -2.046875 3.070312 -2.1875 3.347656 -2.453125 C 3.664062 -2.746094 3.828125 -3.121094 3.828125 -3.574219 Z M 3.828125 -3.574219 "/></g></g></g><g fill="#ffffff" fill-opacity="1"><g transform="translate(35.260636, 37.47077)"><g><path d="M 4.671875 0.515625 C 4.066406 0.128906 3.523438 -0.335938 3.046875 -0.890625 C 2.566406 -1.453125 2.144531 -2.0625 1.78125 -2.71875 C 1.425781 -3.375 1.128906 -4.050781 0.890625 -4.75 C 0.648438 -5.457031 0.472656 -6.160156 0.359375 -6.859375 C 0.234375 -7.515625 0.160156 -8.1875 0.140625 -8.875 C 0.128906 -9.5625 0.222656 -10.234375 0.421875 -10.890625 C 0.578125 -11.410156 0.789062 -11.910156 1.0625 -12.390625 C 1.332031 -12.867188 1.625 -13.328125 1.9375 -13.765625 C 2.71875 -14.835938 3.585938 -15.851562 4.546875 -16.8125 C 5.503906 -17.769531 6.550781 -18.609375 7.6875 -19.328125 C 8.207031 -19.671875 8.75 -19.96875 9.3125 -20.21875 C 9.882812 -20.476562 10.460938 -20.664062 11.046875 -20.78125 C 11.640625 -20.90625 12.234375 -20.941406 12.828125 -20.890625 C 13.429688 -20.847656 14.03125 -20.6875 14.625 -20.40625 C 14.925781 -20.269531 15.117188 -20.03125 15.203125 -19.6875 C 15.285156 -19.351562 15.242188 -19.054688 15.078125 -18.796875 C 14.898438 -18.492188 14.65625 -18.3125 14.34375 -18.25 C 14.039062 -18.1875 13.738281 -18.226562 13.4375 -18.375 C 13.09375 -18.53125 12.664062 -18.585938 12.15625 -18.546875 C 11.945312 -18.546875 11.695312 -18.507812 11.40625 -18.4375 C 11.125 -18.375 10.84375 -18.28125 10.5625 -18.15625 C 9.976562 -17.9375 9.398438 -17.632812 8.828125 -17.25 C 8.265625 -16.863281 7.734375 -16.457031 7.234375 -16.03125 C 6.359375 -15.28125 5.535156 -14.457031 4.765625 -13.5625 C 4.003906 -12.675781 3.363281 -11.71875 2.84375 -10.6875 C 2.78125 -10.539062 2.71875 -10.328125 2.65625 -10.046875 C 2.601562 -9.773438 2.566406 -9.535156 2.546875 -9.328125 C 2.503906 -8.753906 2.535156 -8.1875 2.640625 -7.625 C 2.753906 -6.96875 2.914062 -6.316406 3.125 -5.671875 C 3.332031 -5.023438 3.609375 -4.410156 3.953125 -3.828125 C 4.265625 -3.285156 4.632812 -2.75 5.0625 -2.21875 C 5.5 -1.695312 6.035156 -1.359375 6.671875 -1.203125 C 7.347656 -1.015625 8.046875 -1.050781 8.765625 -1.3125 C 8.921875 -1.375 9.066406 -1.4375 9.203125 -1.5 C 9.347656 -1.570312 9.503906 -1.648438 9.671875 -1.734375 C 9.722656 -1.773438 9.78125 -1.816406 9.84375 -1.859375 C 9.90625 -1.898438 9.96875 -1.9375 10.03125 -1.96875 C 10.488281 -2.375 10.894531 -2.796875 11.25 -3.234375 C 11.613281 -3.671875 11.953125 -4.128906 12.265625 -4.609375 C 12.421875 -4.890625 12.582031 -5.171875 12.75 -5.453125 C 12.925781 -5.742188 13.066406 -6.03125 13.171875 -6.3125 C 13.265625 -6.570312 13.34375 -6.804688 13.40625 -7.015625 C 13.46875 -7.222656 13.5 -7.4375 13.5 -7.65625 C 13.300781 -7.738281 13.097656 -7.78125 12.890625 -7.78125 C 12.691406 -7.78125 12.484375 -7.78125 12.265625 -7.78125 C 11.710938 -7.757812 11.160156 -7.71875 10.609375 -7.65625 C 10.054688 -7.601562 9.492188 -7.578125 8.921875 -7.578125 C 8.535156 -7.578125 8.25 -7.695312 8.0625 -7.9375 C 7.875 -8.1875 7.78125 -8.460938 7.78125 -8.765625 C 7.78125 -9.066406 7.875 -9.335938 8.0625 -9.578125 C 8.25 -9.816406 8.535156 -9.9375 8.921875 -9.9375 C 9.453125 -9.9375 9.988281 -9.960938 10.53125 -10.015625 C 11.070312 -10.078125 11.609375 -10.117188 12.140625 -10.140625 C 12.679688 -10.160156 13.210938 -10.140625 13.734375 -10.078125 C 14.253906 -10.023438 14.773438 -9.890625 15.296875 -9.671875 C 15.804688 -9.460938 16.242188 -9.101562 16.609375 -8.59375 C 16.828125 -8.25 16.921875 -7.867188 16.890625 -7.453125 C 16.859375 -7.035156 16.84375 -6.625 16.84375 -6.21875 C 16.800781 -5.363281 16.773438 -4.507812 16.765625 -3.65625 C 16.753906 -2.8125 16.742188 -1.972656 16.734375 -1.140625 C 16.734375 -0.734375 16.601562 -0.4375 16.34375 -0.25 C 16.082031 -0.0625 15.800781 0.03125 15.5 0.03125 C 15.195312 0.03125 14.925781 -0.0625 14.6875 -0.25 C 14.445312 -0.4375 14.328125 -0.734375 14.328125 -1.140625 C 14.347656 -1.535156 14.359375 -1.929688 14.359375 -2.328125 C 14.359375 -2.734375 14.367188 -3.132812 14.390625 -3.53125 C 13.816406 -2.613281 13.171875 -1.765625 12.453125 -0.984375 C 11.972656 -0.460938 11.410156 -0.0195312 10.765625 0.34375 C 10.128906 0.707031 9.46875 0.96875 8.78125 1.125 C 8.09375 1.289062 7.390625 1.332031 6.671875 1.25 C 5.953125 1.175781 5.285156 0.929688 4.671875 0.515625 Z M 4.671875 0.515625 "/></g></g></g><g fill="#ffffff" fill-opacity="1"><g transform="translate(54.289582, 37.47077)"><g><path d="M 1.375 -18.015625 C 0.976562 -18.128906 0.738281 -18.390625 0.65625 -18.796875 C 0.5625 -19.066406 0.59375 -19.367188 0.75 -19.703125 C 0.90625 -20.035156 1.15625 -20.21875 1.5 -20.25 C 3.4375 -20.550781 5.375 -20.71875 7.3125 -20.75 C 9.257812 -20.78125 11.210938 -20.804688 13.171875 -20.828125 C 13.546875 -20.828125 13.832031 -20.707031 14.03125 -20.46875 C 14.226562 -20.226562 14.328125 -19.957031 14.328125 -19.65625 C 14.328125 -19.351562 14.226562 -19.078125 14.03125 -18.828125 C 13.832031 -18.585938 13.546875 -18.46875 13.171875 -18.46875 C 11.609375 -18.425781 10.039062 -18.40625 8.46875 -18.40625 C 6.894531 -18.40625 5.316406 -18.320312 3.734375 -18.15625 C 3.773438 -17.363281 3.828125 -16.570312 3.890625 -15.78125 C 3.953125 -15 4.007812 -14.207031 4.0625 -13.40625 C 5.582031 -13.488281 7.09375 -13.585938 8.59375 -13.703125 C 10.101562 -13.828125 11.617188 -13.847656 13.140625 -13.765625 C 13.515625 -13.742188 13.800781 -13.601562 14 -13.34375 C 14.195312 -13.082031 14.296875 -12.800781 14.296875 -12.5 C 14.296875 -12.207031 14.195312 -11.941406 14 -11.703125 C 13.800781 -11.460938 13.515625 -11.351562 13.140625 -11.375 C 11.640625 -11.445312 10.15625 -11.421875 8.6875 -11.296875 C 7.226562 -11.179688 5.75 -11.085938 4.25 -11.015625 C 4.363281 -9.578125 4.472656 -8.144531 4.578125 -6.71875 C 4.691406 -5.289062 4.769531 -3.859375 4.8125 -2.421875 C 5.507812 -2.578125 6.21875 -2.726562 6.9375 -2.875 C 7.65625 -3.03125 8.375 -3.148438 9.09375 -3.234375 C 9.8125 -3.328125 10.53125 -3.375 11.25 -3.375 C 11.96875 -3.375 12.6875 -3.316406 13.40625 -3.203125 C 13.726562 -3.140625 13.96875 -2.945312 14.125 -2.625 C 14.28125 -2.3125 14.320312 -2.015625 14.25 -1.734375 C 14.144531 -1.398438 13.953125 -1.160156 13.671875 -1.015625 C 13.390625 -0.878906 13.082031 -0.835938 12.75 -0.890625 C 12.113281 -1.015625 11.460938 -1.054688 10.796875 -1.015625 C 10.140625 -0.972656 9.492188 -0.90625 8.859375 -0.8125 C 8.117188 -0.6875 7.382812 -0.546875 6.65625 -0.390625 C 5.925781 -0.234375 5.203125 -0.0625 4.484375 0.125 C 4.148438 0.195312 3.832031 0.132812 3.53125 -0.0625 C 3.25 -0.101562 3 -0.210938 2.78125 -0.390625 C 2.5625 -0.566406 2.453125 -0.835938 2.453125 -1.203125 C 2.410156 -2.890625 2.332031 -4.5625 2.21875 -6.21875 C 2.113281 -7.875 1.992188 -9.539062 1.859375 -11.21875 C 1.640625 -11.4375 1.515625 -11.707031 1.484375 -12.03125 C 1.453125 -12.363281 1.535156 -12.648438 1.734375 -12.890625 C 1.578125 -14.585938 1.457031 -16.296875 1.375 -18.015625 Z M 1.375 -18.015625 "/></g></g></g><g fill="#ffffff" fill-opacity="1"><g transform="translate(70.924361, 37.47077)"><g><path d="M 12.984375 -0.75 C 12.828125 -0.46875 12.582031 -0.273438 12.25 -0.171875 C 11.925781 -0.078125 11.625 -0.128906 11.34375 -0.328125 C 10.800781 -0.722656 10.28125 -1.132812 9.78125 -1.5625 C 9.28125 -2 8.742188 -2.382812 8.171875 -2.71875 C 7.648438 -3.039062 7.128906 -3.335938 6.609375 -3.609375 C 6.085938 -3.878906 5.585938 -4.191406 5.109375 -4.546875 C 4.535156 -4.984375 4 -5.460938 3.5 -5.984375 C 3.476562 -4.984375 3.488281 -3.988281 3.53125 -3 C 3.570312 -2.019531 3.628906 -1.03125 3.703125 -0.03125 C 3.742188 0.3125 3.632812 0.597656 3.375 0.828125 C 3.125 1.054688 2.847656 1.171875 2.546875 1.171875 C 2.179688 1.171875 1.898438 1.054688 1.703125 0.828125 C 1.503906 0.597656 1.382812 0.3125 1.34375 -0.03125 C 1.226562 -1.46875 1.160156 -2.878906 1.140625 -4.265625 C 1.117188 -5.648438 1.148438 -7.050781 1.234375 -8.46875 C 1.066406 -8.6875 0.90625 -8.910156 0.75 -9.140625 C 0.59375 -9.367188 0.441406 -9.601562 0.296875 -9.84375 C 0.179688 -10.082031 0.132812 -10.3125 0.15625 -10.53125 C 0.1875 -10.75 0.265625 -10.9375 0.390625 -11.09375 C 0.523438 -11.257812 0.6875 -11.390625 0.875 -11.484375 C 1.070312 -11.585938 1.28125 -11.628906 1.5 -11.609375 C 1.539062 -12.066406 1.585938 -12.53125 1.640625 -13 C 1.703125 -13.46875 1.765625 -13.929688 1.828125 -14.390625 C 1.890625 -14.710938 1.941406 -15.023438 1.984375 -15.328125 C 2.035156 -15.640625 2.082031 -15.957031 2.125 -16.28125 C 2.164062 -16.4375 2.191406 -16.582031 2.203125 -16.71875 C 2.210938 -16.863281 2.238281 -17.015625 2.28125 -17.171875 C 2.28125 -17.253906 2.296875 -17.351562 2.328125 -17.46875 C 2.347656 -17.726562 2.359375 -17.984375 2.359375 -18.234375 C 2.359375 -18.484375 2.367188 -18.738281 2.390625 -19 C 2.410156 -19.320312 2.445312 -19.664062 2.5 -20.03125 C 2.550781 -20.40625 2.628906 -20.765625 2.734375 -21.109375 C 2.847656 -21.460938 3.003906 -21.785156 3.203125 -22.078125 C 3.398438 -22.378906 3.671875 -22.609375 4.015625 -22.765625 C 4.328125 -22.910156 4.644531 -22.992188 4.96875 -23.015625 C 5.300781 -23.035156 5.632812 -23.015625 5.96875 -22.953125 C 6.300781 -22.890625 6.625 -22.800781 6.9375 -22.6875 C 7.257812 -22.582031 7.570312 -22.472656 7.875 -22.359375 C 8.570312 -22.097656 9.265625 -21.800781 9.953125 -21.46875 C 10.640625 -21.132812 11.253906 -20.710938 11.796875 -20.203125 C 12.304688 -19.679688 12.75 -19.066406 13.125 -18.359375 C 13.507812 -17.648438 13.679688 -16.914062 13.640625 -16.15625 C 13.597656 -15.695312 13.503906 -15.289062 13.359375 -14.9375 C 13.210938 -14.59375 13.007812 -14.242188 12.75 -13.890625 C 12.113281 -12.984375 11.425781 -12.117188 10.6875 -11.296875 C 9.945312 -10.484375 9.15625 -9.738281 8.3125 -9.0625 C 7.914062 -8.75 7.484375 -8.429688 7.015625 -8.109375 C 6.546875 -7.785156 6.050781 -7.515625 5.53125 -7.296875 C 5.71875 -7.140625 5.898438 -6.976562 6.078125 -6.8125 C 6.253906 -6.65625 6.441406 -6.519531 6.640625 -6.40625 C 7.160156 -6.0625 7.679688 -5.742188 8.203125 -5.453125 C 8.734375 -5.171875 9.25 -4.859375 9.75 -4.515625 C 10.226562 -4.179688 10.695312 -3.820312 11.15625 -3.4375 C 11.613281 -3.0625 12.070312 -2.703125 12.53125 -2.359375 C 12.8125 -2.179688 12.992188 -1.941406 13.078125 -1.640625 C 13.171875 -1.347656 13.140625 -1.050781 12.984375 -0.75 Z M 4.90625 -9.640625 C 5.382812 -9.898438 5.816406 -10.171875 6.203125 -10.453125 C 6.597656 -10.742188 6.984375 -11.0625 7.359375 -11.40625 C 7.753906 -11.757812 8.140625 -12.132812 8.515625 -12.53125 C 8.898438 -12.9375 9.273438 -13.335938 9.640625 -13.734375 C 9.773438 -13.910156 9.898438 -14.066406 10.015625 -14.203125 C 10.140625 -14.347656 10.25 -14.484375 10.34375 -14.609375 C 10.445312 -14.742188 10.550781 -14.882812 10.65625 -15.03125 C 10.769531 -15.1875 10.890625 -15.363281 11.015625 -15.5625 C 11.054688 -15.625 11.09375 -15.679688 11.125 -15.734375 C 11.164062 -15.796875 11.207031 -15.859375 11.25 -15.921875 C 11.269531 -16.472656 11.148438 -16.988281 10.890625 -17.46875 C 10.554688 -18.050781 10.132812 -18.519531 9.625 -18.875 C 9.113281 -19.238281 8.546875 -19.539062 7.921875 -19.78125 C 7.566406 -19.9375 7.207031 -20.070312 6.84375 -20.1875 C 6.488281 -20.3125 6.113281 -20.425781 5.71875 -20.53125 C 5.613281 -20.570312 5.460938 -20.609375 5.265625 -20.640625 C 5.148438 -20.609375 5.070312 -20.550781 5.03125 -20.46875 C 4.945312 -20.207031 4.90625 -20.023438 4.90625 -19.921875 C 4.882812 -19.867188 4.851562 -19.757812 4.8125 -19.59375 C 4.789062 -19.394531 4.773438 -19.238281 4.765625 -19.125 C 4.753906 -19.019531 4.75 -18.910156 4.75 -18.796875 C 4.695312 -17.421875 4.554688 -16.0625 4.328125 -14.71875 C 4.097656 -13.382812 3.910156 -12.03125 3.765625 -10.65625 C 3.722656 -10.4375 3.695312 -10.210938 3.6875 -9.984375 C 3.6875 -9.753906 3.675781 -9.53125 3.65625 -9.3125 C 3.832031 -9.289062 3.929688 -9.289062 3.953125 -9.3125 C 4.171875 -9.34375 4.34375 -9.382812 4.46875 -9.4375 C 4.601562 -9.488281 4.75 -9.554688 4.90625 -9.640625 Z M 4.90625 -9.640625 "/></g></g></g><g fill="#ffffff" fill-opacity="1"><g transform="translate(85.94308, 37.47077)"><g><path d="M 3.296875 -0.390625 C 3.296875 -0.015625 3.171875 0.265625 2.921875 0.453125 C 2.671875 0.648438 2.394531 0.75 2.09375 0.75 C 1.789062 0.75 1.519531 0.648438 1.28125 0.453125 C 1.039062 0.265625 0.921875 -0.015625 0.921875 -0.390625 C 0.921875 -1.941406 1.097656 -3.4375 1.453125 -4.875 C 1.816406 -6.3125 2.269531 -7.738281 2.8125 -9.15625 C 2.675781 -9.414062 2.632812 -9.707031 2.6875 -10.03125 C 2.8125 -10.445312 3.070312 -10.703125 3.46875 -10.796875 C 3.863281 -11.753906 4.273438 -12.707031 4.703125 -13.65625 C 5.140625 -14.601562 5.554688 -15.554688 5.953125 -16.515625 C 6.347656 -17.472656 6.71875 -18.441406 7.0625 -19.421875 C 7.40625 -20.398438 7.6875 -21.394531 7.90625 -22.40625 C 7.957031 -22.707031 8.078125 -22.96875 8.265625 -23.1875 C 8.460938 -23.40625 8.726562 -23.515625 9.0625 -23.515625 C 9.382812 -23.515625 9.675781 -23.398438 9.9375 -23.171875 C 10.195312 -22.941406 10.304688 -22.660156 10.265625 -22.328125 C 10.203125 -21.171875 10.21875 -20.109375 10.3125 -19.140625 C 10.414062 -18.171875 10.566406 -17.210938 10.765625 -16.265625 C 10.972656 -15.316406 11.195312 -14.367188 11.4375 -13.421875 C 11.6875 -12.472656 11.925781 -11.53125 12.15625 -10.59375 C 12.375 -9.695312 12.570312 -8.796875 12.75 -7.890625 C 12.925781 -6.992188 13.210938 -6.128906 13.609375 -5.296875 C 13.804688 -4.878906 14.015625 -4.472656 14.234375 -4.078125 C 14.460938 -3.691406 14.707031 -3.300781 14.96875 -2.90625 C 15.207031 -2.539062 15.425781 -2.164062 15.625 -1.78125 C 15.820312 -1.394531 15.957031 -0.972656 16.03125 -0.515625 C 16.070312 -0.191406 16.023438 0.109375 15.890625 0.390625 C 15.765625 0.671875 15.535156 0.859375 15.203125 0.953125 C 14.921875 1.035156 14.617188 0.992188 14.296875 0.828125 C 13.984375 0.671875 13.796875 0.4375 13.734375 0.125 C 13.648438 -0.332031 13.492188 -0.738281 13.265625 -1.09375 C 13.035156 -1.457031 12.800781 -1.832031 12.5625 -2.21875 C 12.289062 -2.65625 12.035156 -3.097656 11.796875 -3.546875 C 11.566406 -3.992188 11.363281 -4.457031 11.1875 -4.9375 C 10.988281 -5.4375 10.816406 -5.941406 10.671875 -6.453125 C 10.535156 -6.960938 10.410156 -7.472656 10.296875 -7.984375 C 9.398438 -8.046875 8.515625 -8.09375 7.640625 -8.125 C 6.773438 -8.15625 5.90625 -8.21875 5.03125 -8.3125 C 4.550781 -7.039062 4.144531 -5.742188 3.8125 -4.421875 C 3.488281 -3.109375 3.316406 -1.765625 3.296875 -0.390625 Z M 6.109375 -10.984375 C 6.066406 -10.921875 6.039062 -10.851562 6.03125 -10.78125 C 6.019531 -10.71875 5.992188 -10.65625 5.953125 -10.59375 C 6.585938 -10.53125 7.210938 -10.492188 7.828125 -10.484375 C 8.453125 -10.472656 9.082031 -10.445312 9.71875 -10.40625 C 9.5 -11.363281 9.265625 -12.316406 9.015625 -13.265625 C 8.765625 -14.210938 8.539062 -15.175781 8.34375 -16.15625 C 7.988281 -15.28125 7.617188 -14.414062 7.234375 -13.5625 C 6.859375 -12.71875 6.484375 -11.859375 6.109375 -10.984375 Z M 6.109375 -10.984375 "/></g></g></g><g fill="#ffffff" fill-opacity="1"><g transform="translate(103.535525, 37.47077)"><g><path d="M 2.546875 0.234375 C 2.222656 0.234375 1.96875 0.148438 1.78125 -0.015625 C 1.59375 -0.179688 1.46875 -0.378906 1.40625 -0.609375 C 1.34375 -0.835938 1.347656 -1.070312 1.421875 -1.3125 C 1.492188 -1.550781 1.628906 -1.753906 1.828125 -1.921875 C 1.984375 -2.597656 2.019531 -3.28125 1.9375 -3.96875 C 1.863281 -4.65625 1.785156 -5.335938 1.703125 -6.015625 C 1.609375 -6.847656 1.578125 -7.664062 1.609375 -8.46875 C 1.648438 -9.28125 1.734375 -10.109375 1.859375 -10.953125 C 1.972656 -11.785156 2.097656 -12.613281 2.234375 -13.4375 C 2.378906 -14.269531 2.503906 -15.109375 2.609375 -15.953125 C 2.703125 -16.847656 2.785156 -17.734375 2.859375 -18.609375 C 2.929688 -19.484375 2.984375 -20.375 3.015625 -21.28125 C 3.015625 -21.65625 3.144531 -21.941406 3.40625 -22.140625 C 3.664062 -22.335938 3.945312 -22.4375 4.25 -22.4375 C 4.550781 -22.4375 4.820312 -22.335938 5.0625 -22.140625 C 5.300781 -21.941406 5.410156 -21.65625 5.390625 -21.28125 C 5.347656 -20.34375 5.289062 -19.410156 5.21875 -18.484375 C 5.144531 -17.566406 5.0625 -16.628906 4.96875 -15.671875 C 4.863281 -14.796875 4.738281 -13.9375 4.59375 -13.09375 C 4.445312 -12.257812 4.3125 -11.40625 4.1875 -10.53125 C 4.070312 -9.695312 4.015625 -8.875 4.015625 -8.0625 C 4.015625 -7.257812 4.0625 -6.4375 4.15625 -5.59375 C 4.21875 -5.019531 4.273438 -4.441406 4.328125 -3.859375 C 4.378906 -3.285156 4.363281 -2.707031 4.28125 -2.125 C 5.769531 -2.082031 7.265625 -2.003906 8.765625 -1.890625 C 10.265625 -1.785156 11.757812 -1.703125 13.25 -1.640625 C 13.632812 -1.617188 13.921875 -1.476562 14.109375 -1.21875 C 14.296875 -0.96875 14.390625 -0.691406 14.390625 -0.390625 C 14.390625 -0.0859375 14.296875 0.179688 14.109375 0.421875 C 13.921875 0.660156 13.632812 0.769531 13.25 0.75 C 11.4375 0.664062 9.644531 0.554688 7.875 0.421875 C 6.113281 0.296875 4.335938 0.234375 2.546875 0.234375 Z M 2.546875 0.234375 "/></g></g></g><g fill="#ffffff" fill-opacity="1"><g transform="translate(117.776137, 37.47077)"><g><path d="M 15.65625 -7.390625 C 15.550781 -6.171875 15.1875 -5.085938 14.5625 -4.140625 C 13.945312 -3.191406 13.132812 -2.390625 12.125 -1.734375 C 11.4375 -1.316406 10.703125 -0.9375 9.921875 -0.59375 C 9.148438 -0.257812 8.375 -0.00390625 7.59375 0.171875 C 6.894531 0.335938 6.210938 0.410156 5.546875 0.390625 C 4.878906 0.367188 4.207031 0.316406 3.53125 0.234375 C 3.375 0.421875 3.179688 0.546875 2.953125 0.609375 C 2.722656 0.679688 2.5 0.6875 2.28125 0.625 C 1.8125 0.507812 1.53125 0.222656 1.4375 -0.234375 C 1.195312 -0.472656 1.078125 -0.765625 1.078125 -1.109375 C 1.078125 -1.546875 1.273438 -1.894531 1.671875 -2.15625 C 1.796875 -2.945312 1.890625 -3.742188 1.953125 -4.546875 C 2.023438 -5.347656 2.082031 -6.15625 2.125 -6.96875 C 2.1875 -7.925781 2.234375 -8.875 2.265625 -9.8125 C 2.304688 -10.75 2.316406 -11.695312 2.296875 -12.65625 C 2.296875 -13.257812 2.273438 -13.878906 2.234375 -14.515625 C 2.203125 -15.148438 2.1875 -15.78125 2.1875 -16.40625 C 2.1875 -17.039062 2.21875 -17.664062 2.28125 -18.28125 C 2.351562 -18.894531 2.5 -19.492188 2.71875 -20.078125 C 2.625 -20.398438 2.644531 -20.726562 2.78125 -21.0625 C 2.925781 -21.40625 3.195312 -21.613281 3.59375 -21.6875 C 3.832031 -21.945312 4.113281 -22.066406 4.4375 -22.046875 C 4.769531 -22.023438 5.046875 -21.914062 5.265625 -21.71875 C 6.242188 -21.644531 7.195312 -21.460938 8.125 -21.171875 C 9.050781 -20.878906 9.90625 -20.414062 10.6875 -19.78125 C 11.644531 -19.019531 12.410156 -18.101562 12.984375 -17.03125 C 13.566406 -15.96875 14.035156 -14.867188 14.390625 -13.734375 C 14.546875 -13.234375 14.707031 -12.722656 14.875 -12.203125 C 15.050781 -11.691406 15.203125 -11.164062 15.328125 -10.625 C 15.460938 -10.082031 15.554688 -9.539062 15.609375 -9 C 15.671875 -8.46875 15.6875 -7.929688 15.65625 -7.390625 Z M 10.65625 -3.65625 C 10.914062 -3.8125 11.148438 -3.96875 11.359375 -4.125 C 11.566406 -4.289062 11.78125 -4.484375 12 -4.703125 C 12.175781 -4.898438 12.3125 -5.054688 12.40625 -5.171875 C 12.507812 -5.296875 12.632812 -5.476562 12.78125 -5.71875 C 13.113281 -6.414062 13.269531 -7.203125 13.25 -8.078125 C 13.25 -8.578125 13.207031 -9.039062 13.125 -9.46875 C 13.050781 -9.894531 12.9375 -10.378906 12.78125 -10.921875 C 12.613281 -11.484375 12.445312 -12.035156 12.28125 -12.578125 C 12.113281 -13.128906 11.921875 -13.664062 11.703125 -14.1875 C 11.535156 -14.625 11.316406 -15.097656 11.046875 -15.609375 C 10.785156 -16.117188 10.515625 -16.539062 10.234375 -16.875 C 9.535156 -17.71875 8.742188 -18.320312 7.859375 -18.6875 C 6.984375 -19.050781 6.03125 -19.265625 5 -19.328125 C 4.78125 -18.765625 4.644531 -18.179688 4.59375 -17.578125 C 4.539062 -16.972656 4.523438 -16.359375 4.546875 -15.734375 C 4.566406 -15.117188 4.601562 -14.5 4.65625 -13.875 C 4.707031 -13.257812 4.722656 -12.664062 4.703125 -12.09375 C 4.617188 -10.394531 4.539062 -8.71875 4.46875 -7.0625 C 4.40625 -5.40625 4.265625 -3.738281 4.046875 -2.0625 C 4.398438 -2.019531 4.757812 -1.988281 5.125 -1.96875 C 5.5 -1.945312 5.863281 -1.957031 6.21875 -2 C 6.976562 -2.082031 7.742188 -2.273438 8.515625 -2.578125 C 9.285156 -2.890625 10 -3.25 10.65625 -3.65625 Z M 10.65625 -3.65625 "/></g></g></g><g fill="#ffffff" fill-opacity="1"><g transform="translate(135.907275, 37.47077)"><g><path d="M 0.53125 0 C 0.175781 -0.101562 -0.0546875 -0.300781 -0.171875 -0.59375 C -0.296875 -0.894531 -0.316406 -1.1875 -0.234375 -1.46875 C -0.160156 -1.75 0 -1.984375 0.25 -2.171875 C 0.5 -2.359375 0.804688 -2.398438 1.171875 -2.296875 C 1.960938 -2.054688 2.753906 -1.90625 3.546875 -1.84375 C 4.347656 -1.789062 5.171875 -1.785156 6.015625 -1.828125 C 5.671875 -3.242188 5.5 -4.664062 5.5 -6.09375 C 5.5 -7.519531 5.550781 -8.941406 5.65625 -10.359375 C 5.769531 -11.785156 5.878906 -13.21875 5.984375 -14.65625 C 6.097656 -16.09375 6.109375 -17.53125 6.015625 -18.96875 C 5.253906 -18.988281 4.488281 -19.023438 3.71875 -19.078125 C 2.957031 -19.128906 2.195312 -19.203125 1.4375 -19.296875 C 1.09375 -19.335938 0.804688 -19.457031 0.578125 -19.65625 C 0.347656 -19.851562 0.234375 -20.125 0.234375 -20.46875 C 0.234375 -20.769531 0.347656 -21.050781 0.578125 -21.3125 C 0.804688 -21.582031 1.09375 -21.695312 1.4375 -21.65625 C 2.351562 -21.5625 3.273438 -21.476562 4.203125 -21.40625 C 5.128906 -21.34375 6.050781 -21.316406 6.96875 -21.328125 C 7.882812 -21.347656 8.796875 -21.425781 9.703125 -21.5625 C 10.617188 -21.707031 11.523438 -21.941406 12.421875 -22.265625 C 12.710938 -22.359375 13.003906 -22.316406 13.296875 -22.140625 C 13.585938 -21.960938 13.785156 -21.722656 13.890625 -21.421875 C 13.984375 -21.085938 13.945312 -20.785156 13.78125 -20.515625 C 13.613281 -20.242188 13.367188 -20.054688 13.046875 -19.953125 C 11.546875 -19.441406 9.988281 -19.132812 8.375 -19.03125 C 8.5 -17.613281 8.5 -16.1875 8.375 -14.75 C 8.257812 -13.3125 8.140625 -11.882812 8.015625 -10.46875 C 7.898438 -9.050781 7.847656 -7.632812 7.859375 -6.21875 C 7.867188 -4.800781 8.050781 -3.394531 8.40625 -2 C 9.039062 -2.0625 9.664062 -2.125 10.28125 -2.1875 C 10.90625 -2.25 11.53125 -2.296875 12.15625 -2.328125 C 12.53125 -2.347656 12.8125 -2.242188 13 -2.015625 C 13.1875 -1.785156 13.28125 -1.519531 13.28125 -1.21875 C 13.28125 -0.925781 13.1875 -0.648438 13 -0.390625 C 12.8125 -0.128906 12.53125 0.0078125 12.15625 0.03125 C 11.175781 0.09375 10.203125 0.175781 9.234375 0.28125 C 8.265625 0.394531 7.296875 0.472656 6.328125 0.515625 C 5.359375 0.566406 4.390625 0.5625 3.421875 0.5 C 2.453125 0.445312 1.488281 0.28125 0.53125 0 Z M 0.53125 0 "/></g></g></g><g fill="#ffffff" fill-opacity="1"><g transform="translate(150.596798, 37.47077)"><g><path d="M 1.3125 -17.53125 C 1.269531 -17.570312 1.234375 -17.613281 1.203125 -17.65625 C 1.179688 -17.695312 1.148438 -17.738281 1.109375 -17.78125 C 0.867188 -18.019531 0.753906 -18.269531 0.765625 -18.53125 C 0.773438 -18.800781 0.851562 -19.039062 1 -19.25 C 1.15625 -19.457031 1.351562 -19.617188 1.59375 -19.734375 C 1.84375 -19.847656 2.097656 -19.851562 2.359375 -19.75 C 2.679688 -19.789062 2.984375 -19.710938 3.265625 -19.515625 C 3.554688 -19.328125 3.703125 -19.023438 3.703125 -18.609375 C 4.722656 -17.390625 5.679688 -16.191406 6.578125 -15.015625 C 7.472656 -13.835938 8.289062 -12.59375 9.03125 -11.28125 C 9.375 -10.6875 9.6875 -10.070312 9.96875 -9.4375 C 10.257812 -8.8125 10.535156 -8.179688 10.796875 -7.546875 C 10.796875 -8.359375 10.832031 -9.160156 10.90625 -9.953125 C 10.976562 -10.753906 11.0625 -11.578125 11.15625 -12.421875 C 11.375 -14.128906 11.585938 -15.835938 11.796875 -17.546875 C 12.015625 -19.253906 12.132812 -20.984375 12.15625 -22.734375 C 12.15625 -23.117188 12.273438 -23.40625 12.515625 -23.59375 C 12.765625 -23.78125 13.039062 -23.875 13.34375 -23.875 C 13.644531 -23.875 13.921875 -23.78125 14.171875 -23.59375 C 14.421875 -23.40625 14.546875 -23.117188 14.546875 -22.734375 C 14.523438 -20.941406 14.398438 -19.171875 14.171875 -17.421875 C 13.941406 -15.679688 13.71875 -13.929688 13.5 -12.171875 C 13.394531 -11.273438 13.3125 -10.394531 13.25 -9.53125 C 13.195312 -8.664062 13.179688 -7.78125 13.203125 -6.875 C 13.210938 -6.019531 13.234375 -5.171875 13.265625 -4.328125 C 13.296875 -3.492188 13.289062 -2.648438 13.25 -1.796875 C 13.226562 -1.492188 13.132812 -1.25 12.96875 -1.0625 C 12.800781 -0.875 12.597656 -0.75 12.359375 -0.6875 C 12.117188 -0.625 11.878906 -0.632812 11.640625 -0.71875 C 11.398438 -0.800781 11.203125 -0.960938 11.046875 -1.203125 C 10.585938 -1.898438 10.195312 -2.628906 9.875 -3.390625 C 9.550781 -4.160156 9.253906 -4.925781 8.984375 -5.6875 C 8.703125 -6.425781 8.410156 -7.140625 8.109375 -7.828125 C 7.804688 -8.515625 7.46875 -9.195312 7.09375 -9.875 C 6.59375 -10.769531 6.054688 -11.625 5.484375 -12.4375 C 4.921875 -13.257812 4.320312 -14.0625 3.6875 -14.84375 C 3.6875 -14.019531 3.6875 -13.210938 3.6875 -12.421875 C 3.6875 -11.640625 3.703125 -10.84375 3.734375 -10.03125 C 3.773438 -8.59375 3.875 -7.171875 4.03125 -5.765625 C 4.195312 -4.359375 4.367188 -2.945312 4.546875 -1.53125 C 4.585938 -1.1875 4.472656 -0.898438 4.203125 -0.671875 C 3.929688 -0.441406 3.65625 -0.328125 3.375 -0.328125 C 3.019531 -0.328125 2.742188 -0.441406 2.546875 -0.671875 C 2.347656 -0.898438 2.226562 -1.1875 2.1875 -1.53125 C 1.988281 -2.945312 1.804688 -4.359375 1.640625 -5.765625 C 1.484375 -7.171875 1.382812 -8.59375 1.34375 -10.03125 C 1.300781 -11.28125 1.285156 -12.53125 1.296875 -13.78125 C 1.304688 -15.03125 1.3125 -16.28125 1.3125 -17.53125 Z M 1.3125 -17.53125 "/></g></g></g><g fill="#ffffff" fill-opacity="1"><g transform="translate(166.962238, 37.47077)"><g><path d="M 1.375 -18.015625 C 0.976562 -18.128906 0.738281 -18.390625 0.65625 -18.796875 C 0.5625 -19.066406 0.59375 -19.367188 0.75 -19.703125 C 0.90625 -20.035156 1.15625 -20.21875 1.5 -20.25 C 3.4375 -20.550781 5.375 -20.71875 7.3125 -20.75 C 9.257812 -20.78125 11.210938 -20.804688 13.171875 -20.828125 C 13.546875 -20.828125 13.832031 -20.707031 14.03125 -20.46875 C 14.226562 -20.226562 14.328125 -19.957031 14.328125 -19.65625 C 14.328125 -19.351562 14.226562 -19.078125 14.03125 -18.828125 C 13.832031 -18.585938 13.546875 -18.46875 13.171875 -18.46875 C 11.609375 -18.425781 10.039062 -18.40625 8.46875 -18.40625 C 6.894531 -18.40625 5.316406 -18.320312 3.734375 -18.15625 C 3.773438 -17.363281 3.828125 -16.570312 3.890625 -15.78125 C 3.953125 -15 4.007812 -14.207031 4.0625 -13.40625 C 5.582031 -13.488281 7.09375 -13.585938 8.59375 -13.703125 C 10.101562 -13.828125 11.617188 -13.847656 13.140625 -13.765625 C 13.515625 -13.742188 13.800781 -13.601562 14 -13.34375 C 14.195312 -13.082031 14.296875 -12.800781 14.296875 -12.5 C 14.296875 -12.207031 14.195312 -11.941406 14 -11.703125 C 13.800781 -11.460938 13.515625 -11.351562 13.140625 -11.375 C 11.640625 -11.445312 10.15625 -11.421875 8.6875 -11.296875 C 7.226562 -11.179688 5.75 -11.085938 4.25 -11.015625 C 4.363281 -9.578125 4.472656 -8.144531 4.578125 -6.71875 C 4.691406 -5.289062 4.769531 -3.859375 4.8125 -2.421875 C 5.507812 -2.578125 6.21875 -2.726562 6.9375 -2.875 C 7.65625 -3.03125 8.375 -3.148438 9.09375 -3.234375 C 9.8125 -3.328125 10.53125 -3.375 11.25 -3.375 C 11.96875 -3.375 12.6875 -3.316406 13.40625 -3.203125 C 13.726562 -3.140625 13.96875 -2.945312 14.125 -2.625 C 14.28125 -2.3125 14.320312 -2.015625 14.25 -1.734375 C 14.144531 -1.398438 13.953125 -1.160156 13.671875 -1.015625 C 13.390625 -0.878906 13.082031 -0.835938 12.75 -0.890625 C 12.113281 -1.015625 11.460938 -1.054688 10.796875 -1.015625 C 10.140625 -0.972656 9.492188 -0.90625 8.859375 -0.8125 C 8.117188 -0.6875 7.382812 -0.546875 6.65625 -0.390625 C 5.925781 -0.234375 5.203125 -0.0625 4.484375 0.125 C 4.148438 0.195312 3.832031 0.132812 3.53125 -0.0625 C 3.25 -0.101562 3 -0.210938 2.78125 -0.390625 C 2.5625 -0.566406 2.453125 -0.835938 2.453125 -1.203125 C 2.410156 -2.890625 2.332031 -4.5625 2.21875 -6.21875 C 2.113281 -7.875 1.992188 -9.539062 1.859375 -11.21875 C 1.640625 -11.4375 1.515625 -11.707031 1.484375 -12.03125 C 1.453125 -12.363281 1.535156 -12.648438 1.734375 -12.890625 C 1.578125 -14.585938 1.457031 -16.296875 1.375 -18.015625 Z M 1.375 -18.015625 "/></g></g></g><g fill="#ffffff" fill-opacity="1"><g transform="translate(183.597021, 37.47077)"><g/></g></g><g fill="#ffffff" fill-opacity="1"><g transform="translate(194.156608, 37.47077)"><g><path d="M 2.546875 0.234375 C 2.222656 0.234375 1.96875 0.148438 1.78125 -0.015625 C 1.59375 -0.179688 1.46875 -0.378906 1.40625 -0.609375 C 1.34375 -0.835938 1.347656 -1.070312 1.421875 -1.3125 C 1.492188 -1.550781 1.628906 -1.753906 1.828125 -1.921875 C 1.984375 -2.597656 2.019531 -3.28125 1.9375 -3.96875 C 1.863281 -4.65625 1.785156 -5.335938 1.703125 -6.015625 C 1.609375 -6.847656 1.578125 -7.664062 1.609375 -8.46875 C 1.648438 -9.28125 1.734375 -10.109375 1.859375 -10.953125 C 1.972656 -11.785156 2.097656 -12.613281 2.234375 -13.4375 C 2.378906 -14.269531 2.503906 -15.109375 2.609375 -15.953125 C 2.703125 -16.847656 2.785156 -17.734375 2.859375 -18.609375 C 2.929688 -19.484375 2.984375 -20.375 3.015625 -21.28125 C 3.015625 -21.65625 3.144531 -21.941406 3.40625 -22.140625 C 3.664062 -22.335938 3.945312 -22.4375 4.25 -22.4375 C 4.550781 -22.4375 4.820312 -22.335938 5.0625 -22.140625 C 5.300781 -21.941406 5.410156 -21.65625 5.390625 -21.28125 C 5.347656 -20.34375 5.289062 -19.410156 5.21875 -18.484375 C 5.144531 -17.566406 5.0625 -16.628906 4.96875 -15.671875 C 4.863281 -14.796875 4.738281 -13.9375 4.59375 -13.09375 C 4.445312 -12.257812 4.3125 -11.40625 4.1875 -10.53125 C 4.070312 -9.695312 4.015625 -8.875 4.015625 -8.0625 C 4.015625 -7.257812 4.0625 -6.4375 4.15625 -5.59375 C 4.21875 -5.019531 4.273438 -4.441406 4.328125 -3.859375 C 4.378906 -3.285156 4.363281 -2.707031 4.28125 -2.125 C 5.769531 -2.082031 7.265625 -2.003906 8.765625 -1.890625 C 10.265625 -1.785156 11.757812 -1.703125 13.25 -1.640625 C 13.632812 -1.617188 13.921875 -1.476562 14.109375 -1.21875 C 14.296875 -0.96875 14.390625 -0.691406 14.390625 -0.390625 C 14.390625 -0.0859375 14.296875 0.179688 14.109375 0.421875 C 13.921875 0.660156 13.632812 0.769531 13.25 0.75 C 11.4375 0.664062 9.644531 0.554688 7.875 0.421875 C 6.113281 0.296875 4.335938 0.234375 2.546875 0.234375 Z M 2.546875 0.234375 "/></g></g></g><g fill="#ffffff" fill-opacity="1"><g transform="translate(208.397226, 37.47077)"><g><path d="M 4.484375 -1.46875 C 4.023438 -1.800781 3.609375 -2.179688 3.234375 -2.609375 C 2.867188 -3.046875 2.539062 -3.503906 2.25 -3.984375 C 1.96875 -4.398438 1.695312 -4.847656 1.4375 -5.328125 C 1.175781 -5.804688 0.945312 -6.296875 0.75 -6.796875 C 0.550781 -7.296875 0.394531 -7.800781 0.28125 -8.3125 C 0.175781 -8.832031 0.140625 -9.351562 0.171875 -9.875 C 0.234375 -10.894531 0.335938 -11.894531 0.484375 -12.875 C 0.640625 -13.863281 0.847656 -14.835938 1.109375 -15.796875 C 1.191406 -16.160156 1.289062 -16.5625 1.40625 -17 C 1.519531 -17.4375 1.671875 -17.859375 1.859375 -18.265625 C 2.054688 -18.671875 2.285156 -19.046875 2.546875 -19.390625 C 2.804688 -19.734375 3.132812 -19.992188 3.53125 -20.171875 C 4.125 -20.429688 4.71875 -20.523438 5.3125 -20.453125 C 5.914062 -20.378906 6.5 -20.210938 7.0625 -19.953125 C 7.632812 -19.691406 8.179688 -19.378906 8.703125 -19.015625 C 9.222656 -18.648438 9.710938 -18.285156 10.171875 -17.921875 C 10.585938 -17.585938 11 -17.234375 11.40625 -16.859375 C 11.820312 -16.492188 12.25 -16.140625 12.6875 -15.796875 C 13.207031 -15.335938 13.726562 -14.878906 14.25 -14.421875 C 14.78125 -13.960938 15.21875 -13.4375 15.5625 -12.84375 C 15.957031 -12.15625 16.1875 -11.46875 16.25 -10.78125 C 16.3125 -10.09375 16.257812 -9.414062 16.09375 -8.75 C 15.9375 -8.082031 15.6875 -7.425781 15.34375 -6.78125 C 15.007812 -6.144531 14.644531 -5.53125 14.25 -4.9375 C 13.882812 -4.414062 13.46875 -3.863281 13 -3.28125 C 12.53125 -2.707031 12.007812 -2.179688 11.4375 -1.703125 C 10.875 -1.222656 10.265625 -0.84375 9.609375 -0.5625 C 8.960938 -0.289062 8.285156 -0.191406 7.578125 -0.265625 C 7.148438 -0.328125 6.835938 -0.488281 6.640625 -0.75 C 6.265625 -0.8125 5.894531 -0.890625 5.53125 -0.984375 C 5.175781 -1.085938 4.828125 -1.25 4.484375 -1.46875 Z M 2.578125 -10.078125 C 2.535156 -9.578125 2.554688 -9.117188 2.640625 -8.703125 C 2.734375 -8.285156 2.890625 -7.816406 3.109375 -7.296875 C 3.390625 -6.722656 3.695312 -6.140625 4.03125 -5.546875 C 4.375 -4.960938 4.773438 -4.429688 5.234375 -3.953125 C 5.628906 -3.515625 6.085938 -3.242188 6.609375 -3.140625 C 6.953125 -3.078125 7.28125 -3.019531 7.59375 -2.96875 C 7.914062 -2.925781 8.238281 -2.851562 8.5625 -2.75 C 8.675781 -2.789062 8.789062 -2.835938 8.90625 -2.890625 C 9.03125 -2.941406 9.15625 -3.015625 9.28125 -3.109375 C 9.613281 -3.328125 9.921875 -3.566406 10.203125 -3.828125 C 10.484375 -4.085938 10.753906 -4.359375 11.015625 -4.640625 C 11.515625 -5.191406 12 -5.796875 12.46875 -6.453125 C 12.9375 -7.117188 13.304688 -7.800781 13.578125 -8.5 C 13.859375 -9.195312 13.96875 -9.851562 13.90625 -10.46875 C 13.851562 -11.09375 13.566406 -11.691406 13.046875 -12.265625 C 12.566406 -12.804688 12.039062 -13.300781 11.46875 -13.75 C 10.90625 -14.195312 10.351562 -14.648438 9.8125 -15.109375 C 9.351562 -15.503906 8.90625 -15.878906 8.46875 -16.234375 C 8.03125 -16.597656 7.550781 -16.941406 7.03125 -17.265625 C 6.550781 -17.585938 6.082031 -17.828125 5.625 -17.984375 C 5.5625 -18.003906 5.503906 -18.019531 5.453125 -18.03125 C 5.410156 -18.039062 5.359375 -18.054688 5.296875 -18.078125 L 4.84375 -18.109375 C 4.6875 -18.066406 4.585938 -18.023438 4.546875 -17.984375 C 4.410156 -17.828125 4.332031 -17.75 4.3125 -17.75 C 4.164062 -17.507812 4.070312 -17.335938 4.03125 -17.234375 C 4 -17.128906 3.941406 -16.96875 3.859375 -16.75 C 3.660156 -16.175781 3.488281 -15.59375 3.34375 -15 C 3.207031 -14.414062 3.09375 -13.832031 3 -13.25 C 2.894531 -12.675781 2.804688 -12.148438 2.734375 -11.671875 C 2.671875 -11.191406 2.617188 -10.660156 2.578125 -10.078125 Z M 10.3125 -26.421875 C 10.570312 -26.617188 10.851562 -26.734375 11.15625 -26.765625 C 11.457031 -26.796875 11.738281 -26.679688 12 -26.421875 C 12.21875 -26.203125 12.335938 -25.914062 12.359375 -25.5625 C 12.378906 -25.21875 12.257812 -24.9375 12 -24.71875 C 10.5625 -23.625 9.0625 -22.675781 7.5 -21.875 C 7.164062 -21.695312 6.847656 -21.671875 6.546875 -21.796875 C 6.242188 -21.929688 6.019531 -22.125 5.875 -22.375 C 5.726562 -22.632812 5.671875 -22.914062 5.703125 -23.21875 C 5.742188 -23.519531 5.9375 -23.757812 6.28125 -23.9375 C 7 -24.300781 7.691406 -24.679688 8.359375 -25.078125 C 9.023438 -25.472656 9.675781 -25.921875 10.3125 -26.421875 Z M 10.3125 -26.421875 "/></g></g></g><g fill="#ffffff" fill-opacity="1"><g transform="translate(226.199165, 37.47077)"><g><path d="M 1.5 -17.328125 C 1.457031 -17.640625 1.410156 -17.945312 1.359375 -18.25 C 1.304688 -18.550781 1.269531 -18.851562 1.25 -19.15625 C 1.21875 -19.507812 1.210938 -19.882812 1.234375 -20.28125 C 1.265625 -20.6875 1.34375 -21.066406 1.46875 -21.421875 C 1.601562 -21.785156 1.789062 -22.101562 2.03125 -22.375 C 2.269531 -22.65625 2.597656 -22.859375 3.015625 -22.984375 C 3.660156 -23.160156 4.3125 -23.132812 4.96875 -22.90625 C 5.625 -22.675781 6.242188 -22.421875 6.828125 -22.140625 C 7.378906 -21.859375 7.925781 -21.554688 8.46875 -21.234375 C 9.007812 -20.921875 9.566406 -20.625 10.140625 -20.34375 C 10.441406 -20.207031 10.738281 -20.054688 11.03125 -19.890625 C 11.332031 -19.734375 11.597656 -19.550781 11.828125 -19.34375 C 12.054688 -19.132812 12.242188 -18.882812 12.390625 -18.59375 C 12.546875 -18.300781 12.632812 -17.96875 12.65625 -17.59375 C 12.675781 -17.195312 12.609375 -16.804688 12.453125 -16.421875 C 12.304688 -16.046875 12.15625 -15.679688 12 -15.328125 C 11.101562 -13.328125 9.957031 -11.457031 8.5625 -9.71875 C 8.039062 -9.082031 7.453125 -8.488281 6.796875 -7.9375 C 6.148438 -7.394531 5.421875 -7.039062 4.609375 -6.875 C 4.785156 -5.738281 4.988281 -4.625 5.21875 -3.53125 C 5.445312 -2.4375 5.710938 -1.328125 6.015625 -0.203125 C 6.109375 0.171875 6.0625 0.484375 5.875 0.734375 C 5.6875 0.984375 5.453125 1.144531 5.171875 1.21875 C 4.890625 1.300781 4.597656 1.28125 4.296875 1.15625 C 4.003906 1.039062 3.804688 0.796875 3.703125 0.421875 C 3.066406 -2.015625 2.578125 -4.453125 2.234375 -6.890625 C 1.898438 -9.335938 1.679688 -11.828125 1.578125 -14.359375 C 1.566406 -14.703125 1.5625 -15.03125 1.5625 -15.34375 C 1.5625 -15.664062 1.550781 -16 1.53125 -16.34375 C 1.53125 -16.476562 1.53125 -16.609375 1.53125 -16.734375 C 1.53125 -16.867188 1.519531 -16.992188 1.5 -17.109375 Z M 3.625 -20.234375 C 3.601562 -19.785156 3.625 -19.316406 3.6875 -18.828125 C 3.695312 -18.597656 3.707031 -18.453125 3.71875 -18.390625 C 3.726562 -18.335938 3.734375 -18.289062 3.734375 -18.25 L 3.828125 -17.71875 C 3.890625 -17.113281 3.921875 -16.503906 3.921875 -15.890625 C 3.960938 -15.015625 3.992188 -14.140625 4.015625 -13.265625 C 4.046875 -12.398438 4.101562 -11.53125 4.1875 -10.65625 C 4.207031 -10.414062 4.222656 -10.175781 4.234375 -9.9375 C 4.242188 -9.695312 4.269531 -9.46875 4.3125 -9.25 C 4.507812 -9.300781 4.644531 -9.351562 4.71875 -9.40625 C 4.800781 -9.457031 4.882812 -9.503906 4.96875 -9.546875 C 5.082031 -9.628906 5.171875 -9.695312 5.234375 -9.75 C 5.734375 -10.15625 6.148438 -10.554688 6.484375 -10.953125 C 6.828125 -11.347656 7.148438 -11.753906 7.453125 -12.171875 C 8.109375 -13.097656 8.695312 -14.046875 9.21875 -15.015625 C 9.3125 -15.234375 9.410156 -15.4375 9.515625 -15.625 C 9.617188 -15.820312 9.71875 -16.03125 9.8125 -16.25 C 9.851562 -16.34375 9.894531 -16.429688 9.9375 -16.515625 C 9.976562 -16.597656 10.015625 -16.6875 10.046875 -16.78125 C 10.148438 -17.019531 10.222656 -17.222656 10.265625 -17.390625 C 10.265625 -17.523438 10.234375 -17.625 10.171875 -17.6875 C 9.890625 -17.84375 9.679688 -17.953125 9.546875 -18.015625 C 8.960938 -18.296875 8.398438 -18.578125 7.859375 -18.859375 C 7.328125 -19.148438 6.769531 -19.457031 6.1875 -19.78125 C 5.914062 -19.9375 5.632812 -20.082031 5.34375 -20.21875 C 5.050781 -20.363281 4.742188 -20.488281 4.421875 -20.59375 C 4.367188 -20.601562 4.304688 -20.617188 4.234375 -20.640625 C 4.160156 -20.660156 4.097656 -20.671875 4.046875 -20.671875 C 3.898438 -20.691406 3.816406 -20.695312 3.796875 -20.6875 C 3.773438 -20.675781 3.753906 -20.671875 3.734375 -20.671875 C 3.703125 -20.617188 3.679688 -20.5625 3.671875 -20.5 C 3.660156 -20.4375 3.644531 -20.382812 3.625 -20.34375 Z M 3.625 -20.234375 "/></g></g></g><g fill="#ffffff" fill-opacity="1"><g transform="translate(239.482116, 37.47077)"><g><path d="M 1.375 -18.015625 C 0.976562 -18.128906 0.738281 -18.390625 0.65625 -18.796875 C 0.5625 -19.066406 0.59375 -19.367188 0.75 -19.703125 C 0.90625 -20.035156 1.15625 -20.21875 1.5 -20.25 C 3.4375 -20.550781 5.375 -20.71875 7.3125 -20.75 C 9.257812 -20.78125 11.210938 -20.804688 13.171875 -20.828125 C 13.546875 -20.828125 13.832031 -20.707031 14.03125 -20.46875 C 14.226562 -20.226562 14.328125 -19.957031 14.328125 -19.65625 C 14.328125 -19.351562 14.226562 -19.078125 14.03125 -18.828125 C 13.832031 -18.585938 13.546875 -18.46875 13.171875 -18.46875 C 11.609375 -18.425781 10.039062 -18.40625 8.46875 -18.40625 C 6.894531 -18.40625 5.316406 -18.320312 3.734375 -18.15625 C 3.773438 -17.363281 3.828125 -16.570312 3.890625 -15.78125 C 3.953125 -15 4.007812 -14.207031 4.0625 -13.40625 C 5.582031 -13.488281 7.09375 -13.585938 8.59375 -13.703125 C 10.101562 -13.828125 11.617188 -13.847656 13.140625 -13.765625 C 13.515625 -13.742188 13.800781 -13.601562 14 -13.34375 C 14.195312 -13.082031 14.296875 -12.800781 14.296875 -12.5 C 14.296875 -12.207031 14.195312 -11.941406 14 -11.703125 C 13.800781 -11.460938 13.515625 -11.351562 13.140625 -11.375 C 11.640625 -11.445312 10.15625 -11.421875 8.6875 -11.296875 C 7.226562 -11.179688 5.75 -11.085938 4.25 -11.015625 C 4.363281 -9.578125 4.472656 -8.144531 4.578125 -6.71875 C 4.691406 -5.289062 4.769531 -3.859375 4.8125 -2.421875 C 5.507812 -2.578125 6.21875 -2.726562 6.9375 -2.875 C 7.65625 -3.03125 8.375 -3.148438 9.09375 -3.234375 C 9.8125 -3.328125 10.53125 -3.375 11.25 -3.375 C 11.96875 -3.375 12.6875 -3.316406 13.40625 -3.203125 C 13.726562 -3.140625 13.96875 -2.945312 14.125 -2.625 C 14.28125 -2.3125 14.320312 -2.015625 14.25 -1.734375 C 14.144531 -1.398438 13.953125 -1.160156 13.671875 -1.015625 C 13.390625 -0.878906 13.082031 -0.835938 12.75 -0.890625 C 12.113281 -1.015625 11.460938 -1.054688 10.796875 -1.015625 C 10.140625 -0.972656 9.492188 -0.90625 8.859375 -0.8125 C 8.117188 -0.6875 7.382812 -0.546875 6.65625 -0.390625 C 5.925781 -0.234375 5.203125 -0.0625 4.484375 0.125 C 4.148438 0.195312 3.832031 0.132812 3.53125 -0.0625 C 3.25 -0.101562 3 -0.210938 2.78125 -0.390625 C 2.5625 -0.566406 2.453125 -0.835938 2.453125 -1.203125 C 2.410156 -2.890625 2.332031 -4.5625 2.21875 -6.21875 C 2.113281 -7.875 1.992188 -9.539062 1.859375 -11.21875 C 1.640625 -11.4375 1.515625 -11.707031 1.484375 -12.03125 C 1.453125 -12.363281 1.535156 -12.648438 1.734375 -12.890625 C 1.578125 -14.585938 1.457031 -16.296875 1.375 -18.015625 Z M 1.375 -18.015625 "/></g></g></g><g fill="#ffffff" fill-opacity="1"><g transform="translate(256.116899, 37.47077)"><g><path d="M 14.15625 -5.6875 C 14.457031 -5.78125 14.75 -5.738281 15.03125 -5.5625 C 15.320312 -5.382812 15.519531 -5.144531 15.625 -4.84375 C 15.71875 -4.507812 15.675781 -4.207031 15.5 -3.9375 C 15.320312 -3.664062 15.082031 -3.476562 14.78125 -3.375 C 13.6875 -2.976562 12.609375 -2.554688 11.546875 -2.109375 C 10.492188 -1.660156 9.398438 -1.285156 8.265625 -0.984375 C 7.703125 -0.828125 7.128906 -0.703125 6.546875 -0.609375 C 5.972656 -0.523438 5.398438 -0.484375 4.828125 -0.484375 C 4.265625 -0.484375 3.703125 -0.550781 3.140625 -0.6875 C 2.578125 -0.820312 2.039062 -1.039062 1.53125 -1.34375 C 1.226562 -1.5 1.039062 -1.738281 0.96875 -2.0625 C 0.90625 -2.382812 0.941406 -2.6875 1.078125 -2.96875 C 1.859375 -4.582031 2.75 -6.101562 3.75 -7.53125 C 4.757812 -8.957031 5.84375 -10.347656 7 -11.703125 C 7.9375 -12.796875 8.863281 -13.878906 9.78125 -14.953125 C 10.695312 -16.035156 11.578125 -17.175781 12.421875 -18.375 C 11.640625 -18.707031 10.816406 -18.957031 9.953125 -19.125 C 9.097656 -19.300781 8.238281 -19.40625 7.375 -19.4375 C 6.507812 -19.46875 5.640625 -19.441406 4.765625 -19.359375 C 3.898438 -19.273438 3.070312 -19.15625 2.28125 -19 C 1.957031 -18.9375 1.65625 -18.972656 1.375 -19.109375 C 1.09375 -19.253906 0.90625 -19.5 0.8125 -19.84375 C 0.726562 -20.132812 0.757812 -20.4375 0.90625 -20.75 C 1.0625 -21.0625 1.304688 -21.25 1.640625 -21.3125 C 2.703125 -21.507812 3.800781 -21.648438 4.9375 -21.734375 C 6.070312 -21.828125 7.207031 -21.828125 8.34375 -21.734375 C 9.476562 -21.648438 10.585938 -21.453125 11.671875 -21.140625 C 12.765625 -20.828125 13.789062 -20.394531 14.75 -19.84375 C 15.03125 -19.675781 15.210938 -19.429688 15.296875 -19.109375 C 15.390625 -18.796875 15.359375 -18.5 15.203125 -18.21875 C 14.265625 -16.78125 13.253906 -15.421875 12.171875 -14.140625 C 11.097656 -12.867188 10.015625 -11.585938 8.921875 -10.296875 C 7.941406 -9.140625 7.015625 -7.960938 6.140625 -6.765625 C 5.273438 -5.566406 4.484375 -4.3125 3.765625 -3 C 4.484375 -2.8125 5.222656 -2.78125 5.984375 -2.90625 C 6.742188 -3.039062 7.472656 -3.21875 8.171875 -3.4375 C 9.179688 -3.738281 10.175781 -4.09375 11.15625 -4.5 C 12.132812 -4.90625 13.132812 -5.300781 14.15625 -5.6875 Z M 14.15625 -5.6875 "/></g></g></g></svg>